<svg xmlns="http://www.w3.org/2000/svg" width="32.5" height="32.5" viewBox="0 0 32.5 32.5">
  <path id="calender-svgrepo-com" d="M29.625,5.25h-3.25V3.625a1.625,1.625,0,1,0-3.25,0V5.25h-9.75V3.625a1.625,1.625,0,1,0-3.25,0V5.25H6.875A4.875,4.875,0,0,0,2,10.125v19.5A4.875,4.875,0,0,0,6.875,34.5h22.75A4.875,4.875,0,0,0,34.5,29.625v-19.5A4.875,4.875,0,0,0,29.625,5.25ZM31.25,29.625a1.625,1.625,0,0,1-1.625,1.625H6.875A1.625,1.625,0,0,1,5.25,29.625V18.25h26ZM31.25,15h-26V10.125A1.625,1.625,0,0,1,6.875,8.5h3.25v1.625a1.625,1.625,0,1,0,3.25,0V8.5h9.75v1.625a1.625,1.625,0,1,0,3.25,0V8.5h3.25a1.625,1.625,0,0,1,1.625,1.625Z" transform="translate(-2 -2)"/>
</svg>
