<svg xmlns="http://www.w3.org/2000/svg" width="24.8" height="23.146" viewBox="0 0 24.8 23.146">
  <g id="Group_4800" data-name="Group 4800" transform="translate(-10554.882 -3764.75)">
    <path id="Polygon_9" data-name="Polygon 9" d="M11.572,1.222a1,1,0,0,1,1.656,0l3.491,5.154a1,1,0,0,0,.563.4l6.045,1.658a1,1,0,0,1,.514,1.593l-3.88,4.807a1,1,0,0,0-.221.671L20,21.652a1,1,0,0,1-1.342.982l-5.916-2.157a1,1,0,0,0-.685,0L6.141,22.634A1,1,0,0,1,4.8,21.652l.261-6.145a1,1,0,0,0-.221-.671L.959,10.03a1,1,0,0,1,.514-1.593L7.518,6.779a1,1,0,0,0,.563-.4Z" transform="translate(10554.882 3764.75)" fill="#e3e3e3"/>
  </g>
</svg>
