<svg xmlns="http://www.w3.org/2000/svg" width="88" height="88" viewBox="0 0 88 88">
  <g id="Group_4810" data-name="Group 4810" transform="translate(-153.735 -1128)">
    <rect id="Rectangle_1134" data-name="Rectangle 1134" width="88" height="88" rx="16" transform="translate(153.735 1128)"/>
    <g id="Group_4396" data-name="Group 4396" transform="translate(178.292 1152.56)">
      <g id="map-svgrepo-com" transform="translate(0 0)">
        <g id="Group_4395" data-name="Group 4395">
          <path id="Path_3297" data-name="Path 3297" d="M36.968,3.449,25.2.274c-.039-.011-.08-.011-.12-.018l-.032,0a1.328,1.328,0,0,0-.433,0l-.032,0c-.04.007-.08.007-.12.018L13.076,3.347,1.687.274A1.338,1.338,0,0,0,0,1.565V33.614a1.338,1.338,0,0,0,.989,1.292l11.579,3.125a1.353,1.353,0,0,0,.178.048l.012,0c.013,0,.026,0,.04,0a1.349,1.349,0,0,0,.249.041c.01,0,.02,0,.03,0s.02,0,.03,0a1.358,1.358,0,0,0,.249-.041c.013,0,.026,0,.04,0l.012,0a1.389,1.389,0,0,0,.178-.048L24.836,35l5.183,1.4a1.338,1.338,0,1,0,.7-2.584L26.193,32.59V3.312l9.089,2.454v29.89a1.338,1.338,0,1,0,2.676,0V4.741A1.339,1.339,0,0,0,36.968,3.449ZM11.709,35.026,2.676,32.589V3.312l9.032,2.437Zm11.767-2.437-9.032,2.437V5.749l9.032-2.437Z" transform="translate(0 -0.228)" fill="#fff"/>
        </g>
      </g>
    </g>
  </g>
</svg>
