<svg xmlns="http://www.w3.org/2000/svg" xmlns:xlink="http://www.w3.org/1999/xlink" width="63" height="63" viewBox="0 0 63 63">
  <defs>
    <clipPath id="clip-path">
      <circle id="Ellipse_34" data-name="Ellipse 34" cx="31.5" cy="31.5" r="31.5" transform="translate(582 303)" fill="#efefef"/>
    </clipPath>
  </defs>
  <g id="Group_4815" data-name="Group 4815" transform="translate(-10894 -3734)">
    <g id="Mask_Group_32" data-name="Mask Group 32" transform="translate(10312 3431)" clip-path="url(#clip-path)">
      <g id="google-svgrepo-com" transform="translate(582 303)">
        <rect id="Rectangle_1345" data-name="Rectangle 1345" width="63" height="63" rx="11.4" fill="#fff"/>
        <path id="Path_3369" data-name="Path 3369" d="M54.19,54.961c5.57-5.2,8.046-13.863,6.56-22.156H38.594v9.16H51.219a10.424,10.424,0,0,1-4.7,7.055Z" transform="translate(-6.412 -5.45)" fill="#4285f4"/>
        <path id="Path_3370" data-name="Path 3370" d="M13.359,49.409A23.765,23.765,0,0,0,50,56.712L42.323,50.77a14.185,14.185,0,0,1-21.166-7.427Z" transform="translate(-2.219 -7.201)" fill="#34a853"/>
        <path id="Path_3371" data-name="Path 3371" d="M20.665,40.335a14.113,14.113,0,0,1,0-9.036l-7.8-6.065a23.916,23.916,0,0,0,0,21.166Z" transform="translate(-1.727 -4.192)" fill="#fbbc02"/>
        <path id="Path_3372" data-name="Path 3372" d="M21.157,28.714c2.723-8.541,14.358-13.492,22.156-6.189l6.808-6.684a23.372,23.372,0,0,0-36.762,6.808Z" transform="translate(-2.219 -1.607)" fill="#ea4335"/>
      </g>
    </g>
  </g>
</svg>
